G04 #@! TF.FileFunction,Legend,Top*
%FSLAX46Y46*%
G04 Gerber Fmt 4.6, Leading zero omitted, Abs format (unit mm)*
G04 Created by KiCad (PCBNEW 0.201508241000+6117~28~ubuntu14.04.1-product) date Sun 30 Aug 2015 03:15:56 PM PDT*
%MOMM*%
G01*
G04 APERTURE LIST*
%ADD10C,0.100000*%
%ADD11C,0.250000*%
%ADD12C,0.304800*%
%ADD13C,0.150000*%
%ADD14C,0.200000*%
G04 APERTURE END LIST*
D10*
D11*
X146360096Y-67270381D02*
X146360096Y-67984667D01*
X146312476Y-68127524D01*
X146217238Y-68222762D01*
X146074381Y-68270381D01*
X145979143Y-68270381D01*
X146836286Y-68270381D02*
X146836286Y-67270381D01*
X147074381Y-67270381D01*
X147217239Y-67318000D01*
X147312477Y-67413238D01*
X147360096Y-67508476D01*
X147407715Y-67698952D01*
X147407715Y-67841810D01*
X147360096Y-68032286D01*
X147312477Y-68127524D01*
X147217239Y-68222762D01*
X147074381Y-68270381D01*
X146836286Y-68270381D01*
X148169620Y-67746571D02*
X148312477Y-67794190D01*
X148360096Y-67841810D01*
X148407715Y-67937048D01*
X148407715Y-68079905D01*
X148360096Y-68175143D01*
X148312477Y-68222762D01*
X148217239Y-68270381D01*
X147836286Y-68270381D01*
X147836286Y-67270381D01*
X148169620Y-67270381D01*
X148264858Y-67318000D01*
X148312477Y-67365619D01*
X148360096Y-67460857D01*
X148360096Y-67556095D01*
X148312477Y-67651333D01*
X148264858Y-67698952D01*
X148169620Y-67746571D01*
X147836286Y-67746571D01*
X149598191Y-68270381D02*
X149598191Y-67270381D01*
X149598191Y-67746571D02*
X150169620Y-67746571D01*
X150169620Y-68270381D02*
X150169620Y-67270381D01*
X150979144Y-67746571D02*
X151122001Y-67794190D01*
X151169620Y-67841810D01*
X151217239Y-67937048D01*
X151217239Y-68079905D01*
X151169620Y-68175143D01*
X151122001Y-68222762D01*
X151026763Y-68270381D01*
X150645810Y-68270381D01*
X150645810Y-67270381D01*
X150979144Y-67270381D01*
X151074382Y-67318000D01*
X151122001Y-67365619D01*
X151169620Y-67460857D01*
X151169620Y-67556095D01*
X151122001Y-67651333D01*
X151074382Y-67698952D01*
X150979144Y-67746571D01*
X150645810Y-67746571D01*
X152264858Y-67270381D02*
X152598191Y-68270381D01*
X152931525Y-67270381D01*
X153788668Y-68270381D02*
X153217239Y-68270381D01*
X153502953Y-68270381D02*
X153502953Y-67270381D01*
X153407715Y-67413238D01*
X153312477Y-67508476D01*
X153217239Y-67556095D01*
X154217239Y-68175143D02*
X154264858Y-68222762D01*
X154217239Y-68270381D01*
X154169620Y-68222762D01*
X154217239Y-68175143D01*
X154217239Y-68270381D01*
X154883905Y-67270381D02*
X154979144Y-67270381D01*
X155074382Y-67318000D01*
X155122001Y-67365619D01*
X155169620Y-67460857D01*
X155217239Y-67651333D01*
X155217239Y-67889429D01*
X155169620Y-68079905D01*
X155122001Y-68175143D01*
X155074382Y-68222762D01*
X154979144Y-68270381D01*
X154883905Y-68270381D01*
X154788667Y-68222762D01*
X154741048Y-68175143D01*
X154693429Y-68079905D01*
X154645810Y-67889429D01*
X154645810Y-67651333D01*
X154693429Y-67460857D01*
X154741048Y-67365619D01*
X154788667Y-67318000D01*
X154883905Y-67270381D01*
D12*
X147220940Y-103845360D02*
X154023060Y-103845360D01*
X147220940Y-99347020D02*
X154023060Y-99347020D01*
X151622760Y-99347020D02*
X151622760Y-98846640D01*
X152120600Y-98846640D02*
X152120600Y-99347020D01*
X151620220Y-98846640D02*
X152120600Y-98846640D01*
X149120860Y-98846640D02*
X149621240Y-98846640D01*
X149621240Y-98846640D02*
X149621240Y-99347020D01*
X150822660Y-98846640D02*
X150421340Y-98846640D01*
X150421340Y-98846640D02*
X150421340Y-99347020D01*
X150822660Y-98846640D02*
X150822660Y-99347020D01*
X150022560Y-99347020D02*
X150022560Y-97345500D01*
X149123400Y-99347020D02*
X149123400Y-98846640D01*
X151221440Y-99347020D02*
X151221440Y-97345500D01*
X148724620Y-97345500D02*
X148724620Y-99347020D01*
X152519380Y-99347020D02*
X152519380Y-97345500D01*
X152920700Y-98846640D02*
X152920700Y-99347020D01*
X148323300Y-98846640D02*
X148323300Y-99347020D01*
X155519120Y-102047040D02*
X154119580Y-102047040D01*
X155021280Y-101445060D02*
X155021280Y-100845620D01*
X155521660Y-100845620D02*
X155021280Y-100845620D01*
X155521660Y-101445060D02*
X155021280Y-101445060D01*
X154820620Y-102344220D02*
X154820620Y-102844600D01*
X154820620Y-102844600D02*
X154020520Y-102844600D01*
X154020520Y-102344220D02*
X154820620Y-102344220D01*
X155521660Y-100246180D02*
X155521660Y-102047040D01*
X155519120Y-100246180D02*
X154020520Y-100246180D01*
X154020520Y-99446080D02*
X154820620Y-99446080D01*
X154820620Y-99946460D02*
X154020520Y-99946460D01*
X154820620Y-99446080D02*
X154820620Y-99946460D01*
X147223480Y-102346760D02*
X146423380Y-102346760D01*
X146423380Y-102346760D02*
X146423380Y-102847140D01*
X146423380Y-102847140D02*
X147223480Y-102847140D01*
X146423380Y-99446080D02*
X146423380Y-99946460D01*
X147223480Y-99946460D02*
X146423380Y-99946460D01*
X146423380Y-99446080D02*
X147223480Y-99446080D01*
X146225260Y-101445060D02*
X145724880Y-101445060D01*
X146225260Y-100845620D02*
X145724880Y-100845620D01*
X146225260Y-101445060D02*
X146225260Y-100845620D01*
X147223480Y-100246180D02*
X145724880Y-100246180D01*
X145724880Y-100246180D02*
X145724880Y-102047040D01*
X145724880Y-102047040D02*
X147223480Y-102047040D01*
X154020520Y-98846640D02*
X154020520Y-103845360D01*
X147223480Y-103845360D02*
X147223480Y-98846640D01*
X152519380Y-102044500D02*
X153118820Y-102044500D01*
X153118820Y-102044500D02*
X153118820Y-102946200D01*
X153118820Y-102946200D02*
X152519380Y-102946200D01*
X152519380Y-102946200D02*
X152519380Y-102044500D01*
X148125180Y-102946200D02*
X148724620Y-102946200D01*
X148724620Y-102946200D02*
X148724620Y-102044500D01*
X148724620Y-102044500D02*
X148125180Y-102044500D01*
X148125180Y-102044500D02*
X148125180Y-102946200D01*
X148323300Y-98846640D02*
X147223480Y-98846640D01*
X154020520Y-98846640D02*
X152920700Y-98846640D01*
D13*
X142406000Y-82050000D02*
X142406000Y-83050000D01*
X144106000Y-83050000D02*
X144106000Y-82050000D01*
X157138000Y-81796000D02*
X157138000Y-82796000D01*
X158838000Y-82796000D02*
X158838000Y-81796000D01*
X144026000Y-94830000D02*
X145026000Y-94830000D01*
X145026000Y-93130000D02*
X144026000Y-93130000D01*
X157218000Y-86526000D02*
X156218000Y-86526000D01*
X156218000Y-88226000D02*
X157218000Y-88226000D01*
X157064000Y-93839000D02*
X155864000Y-93839000D01*
X155864000Y-92089000D02*
X157064000Y-92089000D01*
X143926000Y-95899000D02*
X145126000Y-95899000D01*
X145126000Y-97649000D02*
X143926000Y-97649000D01*
X151243000Y-89062000D02*
X151243000Y-90262000D01*
X149493000Y-90262000D02*
X149493000Y-89062000D01*
X148195000Y-89062000D02*
X148195000Y-90262000D01*
X146445000Y-90262000D02*
X146445000Y-89062000D01*
X156964000Y-89320000D02*
X155964000Y-89320000D01*
X155964000Y-91020000D02*
X156964000Y-91020000D01*
X145542000Y-103378000D02*
G75*
G03X145542000Y-103378000I-2286000J0D01*
G01*
X160528000Y-103632000D02*
G75*
G03X160528000Y-103632000I-2286000J0D01*
G01*
X160528000Y-66548000D02*
G75*
G03X160528000Y-66548000I-2286000J0D01*
G01*
X145542000Y-66548000D02*
G75*
G03X145542000Y-66548000I-2286000J0D01*
G01*
D14*
X153955000Y-81915000D02*
X153955000Y-85725000D01*
X153955000Y-85725000D02*
X154655000Y-85725000D01*
X154655000Y-85725000D02*
X154655000Y-81915000D01*
X152685000Y-81915000D02*
X152685000Y-85725000D01*
X152685000Y-85725000D02*
X153385000Y-85725000D01*
X153385000Y-85725000D02*
X153385000Y-81915000D01*
X151415000Y-81915000D02*
X151415000Y-85725000D01*
X151415000Y-85725000D02*
X152115000Y-85725000D01*
X152115000Y-85725000D02*
X152115000Y-81915000D01*
X150145000Y-81915000D02*
X150145000Y-85725000D01*
X150145000Y-85725000D02*
X150845000Y-85725000D01*
X150845000Y-85725000D02*
X150845000Y-81915000D01*
X148875000Y-81915000D02*
X148875000Y-85725000D01*
X148875000Y-85725000D02*
X149575000Y-85725000D01*
X149575000Y-85725000D02*
X149575000Y-81915000D01*
X147605000Y-81915000D02*
X147605000Y-85725000D01*
X147605000Y-85725000D02*
X148305000Y-85725000D01*
X148305000Y-85725000D02*
X148305000Y-81915000D01*
X146335000Y-81915000D02*
X146335000Y-85725000D01*
X146335000Y-85725000D02*
X147035000Y-85725000D01*
X147035000Y-85725000D02*
X147035000Y-81915000D01*
X147320000Y-80645000D02*
G75*
G03X147320000Y-80645000I-635000J0D01*
G01*
X145415000Y-72644000D02*
X145415000Y-72009000D01*
X145415000Y-72009000D02*
X146050000Y-71374000D01*
X146050000Y-71374000D02*
X154940000Y-71374000D01*
X154940000Y-71374000D02*
X155575000Y-72009000D01*
X155575000Y-72009000D02*
X155575000Y-72644000D01*
X145415000Y-81915000D02*
X155575000Y-81915000D01*
X155575000Y-81915000D02*
X155575000Y-72644000D01*
X155575000Y-72644000D02*
X145415000Y-72644000D01*
X145415000Y-72644000D02*
X145415000Y-81915000D01*
D12*
X144489714Y-105989846D02*
X144417143Y-106062417D01*
X144199429Y-106134989D01*
X144054286Y-106134989D01*
X143836571Y-106062417D01*
X143691429Y-105917274D01*
X143618857Y-105772131D01*
X143546286Y-105481846D01*
X143546286Y-105264131D01*
X143618857Y-104973846D01*
X143691429Y-104828703D01*
X143836571Y-104683560D01*
X144054286Y-104610989D01*
X144199429Y-104610989D01*
X144417143Y-104683560D01*
X144489714Y-104756131D01*
X145433143Y-104610989D02*
X145723429Y-104610989D01*
X145868571Y-104683560D01*
X146013714Y-104828703D01*
X146086286Y-105118989D01*
X146086286Y-105626989D01*
X146013714Y-105917274D01*
X145868571Y-106062417D01*
X145723429Y-106134989D01*
X145433143Y-106134989D01*
X145288000Y-106062417D01*
X145142857Y-105917274D01*
X145070286Y-105626989D01*
X145070286Y-105118989D01*
X145142857Y-104828703D01*
X145288000Y-104683560D01*
X145433143Y-104610989D01*
X146739428Y-106134989D02*
X146739428Y-104610989D01*
X147610285Y-106134989D01*
X147610285Y-104610989D01*
X148335999Y-106134989D02*
X148335999Y-104610989D01*
X149206856Y-106134989D01*
X149206856Y-104610989D01*
X149569713Y-106280131D02*
X150730856Y-106280131D01*
X151383999Y-104610989D02*
X151529142Y-104610989D01*
X151674285Y-104683560D01*
X151746856Y-104756131D01*
X151819427Y-104901274D01*
X151891999Y-105191560D01*
X151891999Y-105554417D01*
X151819427Y-105844703D01*
X151746856Y-105989846D01*
X151674285Y-106062417D01*
X151529142Y-106134989D01*
X151383999Y-106134989D01*
X151238856Y-106062417D01*
X151166285Y-105989846D01*
X151093713Y-105844703D01*
X151021142Y-105554417D01*
X151021142Y-105191560D01*
X151093713Y-104901274D01*
X151166285Y-104756131D01*
X151238856Y-104683560D01*
X151383999Y-104610989D01*
X153343428Y-106134989D02*
X152472571Y-106134989D01*
X152907999Y-106134989D02*
X152907999Y-104610989D01*
X152762856Y-104828703D01*
X152617714Y-104973846D01*
X152472571Y-105046417D01*
X153851428Y-104610989D02*
X154867428Y-106134989D01*
X154867428Y-104610989D02*
X153851428Y-106134989D01*
X155738286Y-104610989D02*
X155883429Y-104610989D01*
X156028572Y-104683560D01*
X156101143Y-104756131D01*
X156173714Y-104901274D01*
X156246286Y-105191560D01*
X156246286Y-105554417D01*
X156173714Y-105844703D01*
X156101143Y-105989846D01*
X156028572Y-106062417D01*
X155883429Y-106134989D01*
X155738286Y-106134989D01*
X155593143Y-106062417D01*
X155520572Y-105989846D01*
X155448000Y-105844703D01*
X155375429Y-105554417D01*
X155375429Y-105191560D01*
X155448000Y-104901274D01*
X155520572Y-104756131D01*
X155593143Y-104683560D01*
X155738286Y-104610989D01*
X157552572Y-105118989D02*
X157552572Y-106134989D01*
X157189715Y-104538417D02*
X156826858Y-105626989D01*
X157770286Y-105626989D01*
D13*
X143867143Y-78906666D02*
X143914762Y-78954285D01*
X143962381Y-79097142D01*
X143962381Y-79192380D01*
X143914762Y-79335238D01*
X143819524Y-79430476D01*
X143724286Y-79478095D01*
X143533810Y-79525714D01*
X143390952Y-79525714D01*
X143200476Y-79478095D01*
X143105238Y-79430476D01*
X143010000Y-79335238D01*
X142962381Y-79192380D01*
X142962381Y-79097142D01*
X143010000Y-78954285D01*
X143057619Y-78906666D01*
X143962381Y-77954285D02*
X143962381Y-78525714D01*
X143962381Y-78240000D02*
X142962381Y-78240000D01*
X143105238Y-78335238D01*
X143200476Y-78430476D01*
X143248095Y-78525714D01*
X158345143Y-78652666D02*
X158392762Y-78700285D01*
X158440381Y-78843142D01*
X158440381Y-78938380D01*
X158392762Y-79081238D01*
X158297524Y-79176476D01*
X158202286Y-79224095D01*
X158011810Y-79271714D01*
X157868952Y-79271714D01*
X157678476Y-79224095D01*
X157583238Y-79176476D01*
X157488000Y-79081238D01*
X157440381Y-78938380D01*
X157440381Y-78843142D01*
X157488000Y-78700285D01*
X157535619Y-78652666D01*
X157773714Y-77795523D02*
X158440381Y-77795523D01*
X157392762Y-78033619D02*
X158107048Y-78271714D01*
X158107048Y-77652666D01*
X143851334Y-92559143D02*
X143803715Y-92606762D01*
X143660858Y-92654381D01*
X143565620Y-92654381D01*
X143422762Y-92606762D01*
X143327524Y-92511524D01*
X143279905Y-92416286D01*
X143232286Y-92225810D01*
X143232286Y-92082952D01*
X143279905Y-91892476D01*
X143327524Y-91797238D01*
X143422762Y-91702000D01*
X143565620Y-91654381D01*
X143660858Y-91654381D01*
X143803715Y-91702000D01*
X143851334Y-91749619D01*
X144184667Y-91654381D02*
X144851334Y-91654381D01*
X144422762Y-92654381D01*
X152519143Y-88495143D02*
X152471524Y-88542762D01*
X152328667Y-88590381D01*
X152233429Y-88590381D01*
X152090571Y-88542762D01*
X151995333Y-88447524D01*
X151947714Y-88352286D01*
X151900095Y-88161810D01*
X151900095Y-88018952D01*
X151947714Y-87828476D01*
X151995333Y-87733238D01*
X152090571Y-87638000D01*
X152233429Y-87590381D01*
X152328667Y-87590381D01*
X152471524Y-87638000D01*
X152519143Y-87685619D01*
X153471524Y-88590381D02*
X152900095Y-88590381D01*
X153185809Y-88590381D02*
X153185809Y-87590381D01*
X153090571Y-87733238D01*
X152995333Y-87828476D01*
X152900095Y-87876095D01*
X154090571Y-87590381D02*
X154185810Y-87590381D01*
X154281048Y-87638000D01*
X154328667Y-87685619D01*
X154376286Y-87780857D01*
X154423905Y-87971333D01*
X154423905Y-88209429D01*
X154376286Y-88399905D01*
X154328667Y-88495143D01*
X154281048Y-88542762D01*
X154185810Y-88590381D01*
X154090571Y-88590381D01*
X153995333Y-88542762D01*
X153947714Y-88495143D01*
X153900095Y-88399905D01*
X153852476Y-88209429D01*
X153852476Y-87971333D01*
X153900095Y-87780857D01*
X153947714Y-87685619D01*
X153995333Y-87638000D01*
X154090571Y-87590381D01*
X156043334Y-95448381D02*
X155710000Y-94972190D01*
X155471905Y-95448381D02*
X155471905Y-94448381D01*
X155852858Y-94448381D01*
X155948096Y-94496000D01*
X155995715Y-94543619D01*
X156043334Y-94638857D01*
X156043334Y-94781714D01*
X155995715Y-94876952D01*
X155948096Y-94924571D01*
X155852858Y-94972190D01*
X155471905Y-94972190D01*
X156995715Y-95448381D02*
X156424286Y-95448381D01*
X156710000Y-95448381D02*
X156710000Y-94448381D01*
X156614762Y-94591238D01*
X156519524Y-94686476D01*
X156424286Y-94734095D01*
X144105334Y-99258381D02*
X143772000Y-98782190D01*
X143533905Y-99258381D02*
X143533905Y-98258381D01*
X143914858Y-98258381D01*
X144010096Y-98306000D01*
X144057715Y-98353619D01*
X144105334Y-98448857D01*
X144105334Y-98591714D01*
X144057715Y-98686952D01*
X144010096Y-98734571D01*
X143914858Y-98782190D01*
X143533905Y-98782190D01*
X145010096Y-98258381D02*
X144533905Y-98258381D01*
X144486286Y-98734571D01*
X144533905Y-98686952D01*
X144629143Y-98639333D01*
X144867239Y-98639333D01*
X144962477Y-98686952D01*
X145010096Y-98734571D01*
X145057715Y-98829810D01*
X145057715Y-99067905D01*
X145010096Y-99163143D01*
X144962477Y-99210762D01*
X144867239Y-99258381D01*
X144629143Y-99258381D01*
X144533905Y-99210762D01*
X144486286Y-99163143D01*
X151836381Y-94368857D02*
X151360190Y-94702191D01*
X151836381Y-94940286D02*
X150836381Y-94940286D01*
X150836381Y-94559333D01*
X150884000Y-94464095D01*
X150931619Y-94416476D01*
X151026857Y-94368857D01*
X151169714Y-94368857D01*
X151264952Y-94416476D01*
X151312571Y-94464095D01*
X151360190Y-94559333D01*
X151360190Y-94940286D01*
X151836381Y-93416476D02*
X151836381Y-93987905D01*
X151836381Y-93702191D02*
X150836381Y-93702191D01*
X150979238Y-93797429D01*
X151074476Y-93892667D01*
X151122095Y-93987905D01*
X150836381Y-92797429D02*
X150836381Y-92702190D01*
X150884000Y-92606952D01*
X150931619Y-92559333D01*
X151026857Y-92511714D01*
X151217333Y-92464095D01*
X151455429Y-92464095D01*
X151645905Y-92511714D01*
X151741143Y-92559333D01*
X151788762Y-92606952D01*
X151836381Y-92702190D01*
X151836381Y-92797429D01*
X151788762Y-92892667D01*
X151741143Y-92940286D01*
X151645905Y-92987905D01*
X151455429Y-93035524D01*
X151217333Y-93035524D01*
X151026857Y-92987905D01*
X150931619Y-92940286D01*
X150884000Y-92892667D01*
X150836381Y-92797429D01*
X145994381Y-89034857D02*
X145518190Y-89368191D01*
X145994381Y-89606286D02*
X144994381Y-89606286D01*
X144994381Y-89225333D01*
X145042000Y-89130095D01*
X145089619Y-89082476D01*
X145184857Y-89034857D01*
X145327714Y-89034857D01*
X145422952Y-89082476D01*
X145470571Y-89130095D01*
X145518190Y-89225333D01*
X145518190Y-89606286D01*
X145994381Y-88082476D02*
X145994381Y-88653905D01*
X145994381Y-88368191D02*
X144994381Y-88368191D01*
X145137238Y-88463429D01*
X145232476Y-88558667D01*
X145280095Y-88653905D01*
X144994381Y-87749143D02*
X144994381Y-87130095D01*
X145375333Y-87463429D01*
X145375333Y-87320571D01*
X145422952Y-87225333D01*
X145470571Y-87177714D01*
X145565810Y-87130095D01*
X145803905Y-87130095D01*
X145899143Y-87177714D01*
X145946762Y-87225333D01*
X145994381Y-87320571D01*
X145994381Y-87606286D01*
X145946762Y-87701524D01*
X145899143Y-87749143D01*
X152741334Y-90273143D02*
X152693715Y-90320762D01*
X152550858Y-90368381D01*
X152455620Y-90368381D01*
X152312762Y-90320762D01*
X152217524Y-90225524D01*
X152169905Y-90130286D01*
X152122286Y-89939810D01*
X152122286Y-89796952D01*
X152169905Y-89606476D01*
X152217524Y-89511238D01*
X152312762Y-89416000D01*
X152455620Y-89368381D01*
X152550858Y-89368381D01*
X152693715Y-89416000D01*
X152741334Y-89463619D01*
X153122286Y-89463619D02*
X153169905Y-89416000D01*
X153265143Y-89368381D01*
X153503239Y-89368381D01*
X153598477Y-89416000D01*
X153646096Y-89463619D01*
X153693715Y-89558857D01*
X153693715Y-89654095D01*
X153646096Y-89796952D01*
X153074667Y-90368381D01*
X153693715Y-90368381D01*
D14*
X149527381Y-73599524D02*
X149527381Y-74627619D01*
X149587857Y-74748571D01*
X149648333Y-74809048D01*
X149769286Y-74869524D01*
X150011190Y-74869524D01*
X150132143Y-74809048D01*
X150192619Y-74748571D01*
X150253095Y-74627619D01*
X150253095Y-73599524D01*
X151523095Y-74869524D02*
X150797381Y-74869524D01*
X151160238Y-74869524D02*
X151160238Y-73599524D01*
X151039286Y-73780952D01*
X150918333Y-73901905D01*
X150797381Y-73962381D01*
X145989524Y-76744286D02*
X146170953Y-76804762D01*
X146231429Y-76865238D01*
X146291905Y-76986190D01*
X146291905Y-77167619D01*
X146231429Y-77288571D01*
X146170953Y-77349048D01*
X146050000Y-77409524D01*
X145566191Y-77409524D01*
X145566191Y-76139524D01*
X145989524Y-76139524D01*
X146110477Y-76200000D01*
X146170953Y-76260476D01*
X146231429Y-76381429D01*
X146231429Y-76502381D01*
X146170953Y-76623333D01*
X146110477Y-76683810D01*
X145989524Y-76744286D01*
X145566191Y-76744286D01*
X146654762Y-76139524D02*
X147380477Y-76139524D01*
X147017620Y-77409524D02*
X147017620Y-76139524D01*
X147803810Y-77409524D02*
X147803810Y-76139524D01*
X148529524Y-77409524D01*
X148529524Y-76139524D01*
X149315715Y-76683810D02*
X149194762Y-76623333D01*
X149134286Y-76562857D01*
X149073810Y-76441905D01*
X149073810Y-76381429D01*
X149134286Y-76260476D01*
X149194762Y-76200000D01*
X149315715Y-76139524D01*
X149557619Y-76139524D01*
X149678572Y-76200000D01*
X149739048Y-76260476D01*
X149799524Y-76381429D01*
X149799524Y-76441905D01*
X149739048Y-76562857D01*
X149678572Y-76623333D01*
X149557619Y-76683810D01*
X149315715Y-76683810D01*
X149194762Y-76744286D01*
X149134286Y-76804762D01*
X149073810Y-76925714D01*
X149073810Y-77167619D01*
X149134286Y-77288571D01*
X149194762Y-77349048D01*
X149315715Y-77409524D01*
X149557619Y-77409524D01*
X149678572Y-77349048D01*
X149739048Y-77288571D01*
X149799524Y-77167619D01*
X149799524Y-76925714D01*
X149739048Y-76804762D01*
X149678572Y-76744286D01*
X149557619Y-76683810D01*
X150404286Y-77409524D02*
X150646191Y-77409524D01*
X150767143Y-77349048D01*
X150827619Y-77288571D01*
X150948572Y-77107143D01*
X151009048Y-76865238D01*
X151009048Y-76381429D01*
X150948572Y-76260476D01*
X150888096Y-76200000D01*
X150767143Y-76139524D01*
X150525239Y-76139524D01*
X150404286Y-76200000D01*
X150343810Y-76260476D01*
X150283334Y-76381429D01*
X150283334Y-76683810D01*
X150343810Y-76804762D01*
X150404286Y-76865238D01*
X150525239Y-76925714D01*
X150767143Y-76925714D01*
X150888096Y-76865238D01*
X150948572Y-76804762D01*
X151009048Y-76683810D01*
X151734763Y-76683810D02*
X151613810Y-76623333D01*
X151553334Y-76562857D01*
X151492858Y-76441905D01*
X151492858Y-76381429D01*
X151553334Y-76260476D01*
X151613810Y-76200000D01*
X151734763Y-76139524D01*
X151976667Y-76139524D01*
X152097620Y-76200000D01*
X152158096Y-76260476D01*
X152218572Y-76381429D01*
X152218572Y-76441905D01*
X152158096Y-76562857D01*
X152097620Y-76623333D01*
X151976667Y-76683810D01*
X151734763Y-76683810D01*
X151613810Y-76744286D01*
X151553334Y-76804762D01*
X151492858Y-76925714D01*
X151492858Y-77167619D01*
X151553334Y-77288571D01*
X151613810Y-77349048D01*
X151734763Y-77409524D01*
X151976667Y-77409524D01*
X152097620Y-77349048D01*
X152158096Y-77288571D01*
X152218572Y-77167619D01*
X152218572Y-76925714D01*
X152158096Y-76804762D01*
X152097620Y-76744286D01*
X151976667Y-76683810D01*
X152702382Y-76260476D02*
X152762858Y-76200000D01*
X152883810Y-76139524D01*
X153186191Y-76139524D01*
X153307144Y-76200000D01*
X153367620Y-76260476D01*
X153428096Y-76381429D01*
X153428096Y-76502381D01*
X153367620Y-76683810D01*
X152641906Y-77409524D01*
X153428096Y-77409524D01*
X153790953Y-76139524D02*
X154516668Y-76139524D01*
X154153811Y-77409524D02*
X154153811Y-76139524D01*
X154879525Y-77046667D02*
X155484287Y-77046667D01*
X154758572Y-77409524D02*
X155181906Y-76139524D01*
X155605239Y-77409524D01*
M02*
